HIERARCHY
ROOT Hips
{
	OFFSET	0.00	0.00	0.00
	CHANNELS 6 Xposition Yposition Zposition Zrotation Xrotation Yrotation
	JOINT Chest
	{
		OFFSET	0.000000	6.275751	0.000000
		CHANNELS 3 Zrotation Xrotation Yrotation
		JOINT Neck
		{
			OFFSET	0.000000	14.296947	0.000000
			CHANNELS 3 Zrotation Xrotation Yrotation
			JOINT Head
			{
				OFFSET	0.000000	2.637461	0.000000
				CHANNELS 3 Zrotation Xrotation Yrotation
				End Site
				{
					OFFSET	0.000000	4.499004	0.000000
				}
			}
		}
		JOINT LeftCollar
		{
			OFFSET	1.120000	11.362855	1.870000
			CHANNELS 3 Zrotation Xrotation Yrotation
			JOINT LeftUpArm
			{
				OFFSET	4.565688	2.019026	-1.821179
				CHANNELS 3 Zrotation Xrotation Yrotation
				JOINT LeftLowArm
				{
					OFFSET	0.219729	-10.348825	-0.061708
					CHANNELS 3 Zrotation Xrotation Yrotation
					JOINT LeftHand
					{
						OFFSET	0.087892	-10.352228	2.178217
						CHANNELS 3 Zrotation Xrotation Yrotation
						End Site
						{
							OFFSET	0.131837	-6.692379	1.711456
						}
					}
				}
			}
		}
		JOINT RightCollar
		{
			OFFSET	-1.120000	11.362855	1.870000
			CHANNELS 3 Zrotation Xrotation Yrotation
			JOINT RightUpArm
			{
				OFFSET	-4.708080	2.034554	-1.821179
				CHANNELS 3 Zrotation Xrotation Yrotation
				JOINT RightLowArm
				{
					OFFSET	-0.263676	-10.428555	-0.061708
					CHANNELS 3 Zrotation Xrotation Yrotation
					JOINT RightHand
					{
						OFFSET	0.000000	-10.255345	2.178217
						CHANNELS 3 Zrotation Xrotation Yrotation
						End Site
						{
							OFFSET	-0.140882	-6.671274	1.711456
						}
					}
				}
			}
		}
	}
	JOINT LeftUpLeg
	{
		OFFSET	3.910000	0.000000	0.000000
		CHANNELS 3 Zrotation Xrotation Yrotation
		JOINT LeftLowLeg
		{
			OFFSET	-0.441177	-17.569450	1.695613
			CHANNELS 3 Zrotation Xrotation Yrotation
			JOINT LeftFoot
			{
				OFFSET	-0.043946	-17.197315	-1.478076
				CHANNELS 3 Zrotation Xrotation Yrotation
				End Site
				{
					OFFSET	0.000000	-3.933155	5.233925
				}
			}
		}
	}
	JOINT RightUpLeg
	{
		OFFSET	-3.910000	0.000000	0.000000
		CHANNELS 3 Zrotation Xrotation Yrotation
		JOINT RightLowLeg
		{
			OFFSET	0.437741	-17.622387	1.695613
			CHANNELS 3 Zrotation Xrotation Yrotation
			JOINT RightFoot
			{
				OFFSET	0.000000	-17.140001	-1.478076
				CHANNELS 3 Zrotation Xrotation Yrotation
				End Site
				{
					OFFSET	0.000000	-4.038528	5.233925
				}
			}
		}
	}
}
MOTION
Frames: 10
Frame Time: 0.04166667
0.434791	5.537025	3.379556	-2.836825	0.674646	117.084061	-3.381311	-1.627736	-5.141523	1.783451	-0.359083	-12.387668	2.778770	11.679773	0.235165	-31.495079	26.066248	24.806082	114.578056	-13.431262	52.996014	-3.844050	6.607562	0.952692	9.668554	2.635446	2.045536	26.821396	27.329075	-21.408842	-111.997887	-14.028901	-41.825043	10.299056	11.956642	-2.063737	-47.616932	6.416853	-9.116083	5.510216	6.015903	1.009845	-1.894485	-9.186993	-6.329051	-6.347800	-0.065932	0.459544	-5.141910	7.625274	-15.983010	2.404992	-9.114429	10.711344	-2.191550	0.507005	5.257395	
0.450651	5.534033	3.372331	-2.764956	0.689160	117.127769	-3.350018	-1.637578	-5.189656	1.741214	-0.482549	-12.453480	2.776770	11.557981	0.241134	-31.454521	26.043169	24.794157	114.470642	-13.473560	53.098564	-3.846756	6.602499	0.949929	9.571924	2.632052	2.025294	26.712980	27.239666	-21.325508	-111.864868	-14.151261	-41.831177	10.294833	12.142400	-2.168743	-47.432896	6.387503	-9.089071	5.545115	6.103251	0.861972	-1.885883	-9.187519	-6.234911	-6.346849	-0.092319	0.456585	-5.120147	7.732521	-16.029303	2.406365	-9.113604	10.727376	-2.152049	0.473214	5.251479	
0.466400	5.525668	3.365294	-2.701850	0.638598	117.203941	-3.243675	-1.768286	-5.240005	1.702237	-0.488752	-12.400442	2.727836	11.472887	0.241083	-30.972254	26.006302	24.616083	113.879593	-13.709975	52.910275	-3.817307	6.564085	0.894449	9.972187	2.646456	2.109189	26.441980	27.070810	-21.160522	-111.560478	-14.269668	-41.523277	10.285474	12.181121	-2.187138	-47.214409	6.352823	-9.056909	5.640075	6.145491	0.635841	-1.871758	-9.188125	-6.077252	-6.344929	-0.114888	0.453930	-5.032047	7.807529	-16.077868	2.402187	-9.115818	10.680965	-2.156845	0.449301	5.251122	
0.485911	5.527020	3.358434	-2.586546	0.737061	117.224335	-3.336549	-1.743457	-5.226752	1.752278	-0.500787	-12.368118	2.698856	11.507846	0.236808	-30.863617	26.038988	24.560759	113.818428	-13.758518	52.880459	-3.807287	6.557778	0.890040	9.926113	2.644788	2.099519	26.396374	26.954979	-21.018948	-111.356964	-14.288747	-41.229538	10.318024	12.045530	-2.107593	-47.266212	6.361009	-9.064545	5.626851	6.318519	0.431234	-1.857304	-9.190390	-5.915422	-6.349347	-0.150996	0.450454	-5.065955	7.989283	-16.003687	2.394101	-9.115612	10.588937	-2.168997	0.418990	5.251414	
0.503833	5.525037	3.352480	-2.457611	0.834325	117.209953	-3.417189	-1.698948	-5.187775	1.814594	-0.489119	-12.363369	2.647509	11.586839	0.228504	-31.010136	25.941727	24.508457	114.142082	-13.689007	52.836090	-3.860175	6.615960	0.959301	9.437170	2.627301	1.997031	26.407866	26.902266	-20.900173	-111.235939	-14.294365	-41.133923	10.298123	11.982187	-2.071041	-47.311150	6.368154	-9.071143	5.599061	6.508864	0.423921	-1.856139	-9.188889	-5.902517	-6.325499	-0.174958	0.445482	-5.097229	8.174151	-15.921210	2.388578	-9.115923	10.526070	-2.166799	0.393738	5.250224	
0.517966	5.521240	3.347378	-2.294952	0.929044	117.184708	-3.464727	-1.576757	-5.120296	1.885608	-0.511941	-12.313467	2.586121	11.686007	0.218546	-31.033613	26.016569	24.544800	114.260689	-13.764235	52.937561	-3.864854	6.625798	0.961133	9.535901	2.630757	2.017719	26.437601	26.861536	-20.846825	-111.146309	-14.295885	-40.940411	10.290831	11.766870	-1.945709	-47.208652	6.351903	-9.056068	5.599995	6.724082	0.359236	-1.850317	-9.189189	-5.841072	-6.337883	-0.204252	0.443560	-5.103400	8.379980	-15.891239	2.387383	-9.118117	10.513039	-2.176055	0.377021	5.250631	
0.528749	5.516237	3.340416	-2.167284	0.986948	117.198616	-3.429922	-1.505328	-5.120964	1.873906	-0.534622	-12.287830	2.556318	11.823570	0.209644	-31.056704	25.979549	24.580175	114.369637	-13.888241	52.884247	-3.904094	6.660050	0.976476	9.748188	2.638364	2.062240	26.446632	26.905424	-20.854094	-111.202202	-14.378016	-41.109005	10.301326	11.845494	-1.989918	-47.232468	6.355698	-9.059575	5.614905	6.877390	0.234942	-1.841822	-9.190007	-5.746146	-6.318943	-0.197035	0.442448	-5.105473	8.543209	-15.872631	2.386966	-9.118581	10.508240	-2.154006	0.363894	5.247579	
0.541406	5.512295	3.331278	-2.103840	1.018304	117.210785	-3.368543	-1.566162	-5.165369	1.811443	-0.484002	-12.318322	2.549310	11.902196	0.205431	-30.661600	26.027870	24.366968	113.788551	-13.964294	52.709759	-3.736932	6.501012	0.839278	9.829907	2.641294	2.079374	26.282028	26.947773	-20.753323	-111.189964	-14.494555	-41.168667	10.308934	12.080183	-2.122149	-47.115730	6.337235	-9.042336	5.625330	6.968127	0.100881	-1.831052	-9.191635	-5.628920	-6.320943	-0.219800	0.440188	-5.112404	8.640711	-15.844155	2.384862	-9.117192	10.486806	-2.154083	0.338289	5.246638	
0.556637	5.511556	3.324045	-2.065335	1.074356	117.193832	-3.401705	-1.641834	-5.158813	1.824907	-0.426811	-12.264497	2.533153	11.898439	0.204300	-30.440712	25.916794	24.242254	113.619064	-14.048051	52.379398	-3.698456	6.474325	0.815387	9.923589	2.644699	2.098992	26.070953	26.830366	-20.600805	-111.077614	-14.612747	-40.767944	10.338200	12.194805	-2.187406	-47.241871	6.357214	-9.060939	5.588952	7.056016	0.099046	-1.828550	-9.189666	-5.598456	-6.300783	-0.227135	0.437415	-5.163788	8.725779	-15.725307	2.379442	-9.118094	10.423423	-2.133224	0.315967	5.243395	
0.568530	5.510165	3.318718	-2.055096	1.113616	117.205391	-3.420212	-1.709538	-5.178859	1.823997	-0.418647	-12.232053	2.518153	11.887297	0.203599	-30.245848	25.783443	24.126438	113.494179	-14.120075	52.124046	-3.739440	6.511491	0.845134	9.886009	2.643324	2.091128	25.955219	26.723158	-20.527576	-111.022957	-14.690352	-40.397373	10.332476	12.173971	-2.175646	-47.212841	6.352589	-9.056655	5.563243	7.100926	0.066564	-1.827228	-9.190859	-5.583810	-6.293771	-0.235710	0.435820	-5.190377	8.777864	-15.717814	2.377907	-9.119369	10.406512	-2.150110	0.286691	5.244234	
